<?xml version="1.0" encoding="iso-8859-1"?>
<!-- Generator: Adobe Illustrator 19.0.0, SVG Export Plug-In . SVG Version: 6.00 Build 0)  -->
<svg xmlns="http://www.w3.org/2000/svg" xmlns:xlink="http://www.w3.org/1999/xlink" version="1.1" id="Capa_1" x="0px" y="0px" viewBox="0 0 512 512" style="enable-background:new 0 0 512 512;" xml:space="preserve" width="512px" height="512px">
<g>
	<g>
		<g>
			<path d="M128,298.667c-5.875,0-10.667,4.781-10.667,10.667V352c0,5.885,4.792,10.667,10.667,10.667s10.667-4.781,10.667-10.667     v-42.667C138.667,303.448,133.875,298.667,128,298.667z" fill="#c02425"/>
			<path d="M384,298.667h-10.667V320H384c5.875,0,10.667-4.781,10.667-10.667C394.667,303.448,389.875,298.667,384,298.667z" fill="#c02425"/>
			<path d="M202.667,160c0-5.885-4.792-10.667-10.667-10.667s-10.667,4.781-10.667,10.667v32h21.333V160z" fill="#c02425"/>
			<path d="M469.333,64H42.667C19.146,64,0,83.135,0,106.667v298.667C0,428.865,19.146,448,42.667,448h426.667     C492.854,448,512,428.865,512,405.333V106.667C512,83.135,492.854,64,469.333,64z M74.667,202.667V160c0-17.646,14.354-32,32-32     c17.646,0,32,14.354,32,32c0,5.896-4.771,10.667-10.667,10.667s-10.667-4.771-10.667-10.667c0-5.885-4.792-10.667-10.667-10.667     S96,154.115,96,160v42.667c0,5.885,4.792,10.667,10.667,10.667s10.667-4.781,10.667-10.667c-5.896,0-10.667-4.771-10.667-10.667     s4.771-10.667,10.667-10.667H128c5.896,0,10.667,4.771,10.667,10.667v10.667c0,17.646-14.354,32-32,32     C89.021,234.667,74.667,220.313,74.667,202.667z M160,352c0,17.646-14.354,32-32,32s-32-14.354-32-32v-42.667     c0-17.646,14.354-32,32-32s32,14.354,32,32V352z M170.667,234.667c-5.896,0-10.667-4.771-10.667-10.667v-64     c0-17.646,14.354-32,32-32s32,14.354,32,32v64c0,5.896-4.771,10.667-10.667,10.667c-5.896,0-10.667-4.771-10.667-10.667v-10.667     h-21.333V224C181.333,229.896,176.563,234.667,170.667,234.667z M245.333,341.333c0,2.104-0.625,4.167-1.792,5.917l-21.333,32     c-1.979,2.969-5.313,4.75-8.875,4.75s-6.896-1.781-8.875-4.75l-21.333-32c-1.167-1.75-1.792-3.813-1.792-5.917V288     c0-5.896,4.771-10.667,10.667-10.667s10.667,4.771,10.667,10.667v50.104l10.667,16l10.667-16V288     c0-5.896,4.771-10.667,10.667-10.667c5.896,0,10.667,4.771,10.667,10.667V341.333z M309.333,320     c5.896,0,10.667,4.771,10.667,10.667c0,5.896-4.771,10.667-10.667,10.667H288v21.333h32c5.896,0,10.667,4.771,10.667,10.667     c0,5.896-4.771,10.667-10.667,10.667h-42.667c-5.896,0-10.667-4.771-10.667-10.667V288c0-5.896,4.771-10.667,10.667-10.667H320     c5.896,0,10.667,4.771,10.667,10.667s-4.771,10.667-10.667,10.667h-32V320H309.333z M341.333,234.667     c-5.896,0-10.667-4.771-10.667-10.667v-64c0-5.885-4.792-10.667-10.667-10.667s-10.667,4.781-10.667,10.667v64     c0,5.896-4.771,10.667-10.667,10.667c-5.896,0-10.667-4.771-10.667-10.667v-64c0-5.885-4.792-10.667-10.667-10.667     s-10.667,4.781-10.667,10.667v64c0,5.896-4.771,10.667-10.667,10.667s-10.667-4.771-10.667-10.667v-64c0-17.646,14.354-32,32-32     c8.188,0,15.667,3.094,21.333,8.167C304.333,131.094,311.813,128,320,128c17.646,0,32,14.354,32,32v64     C352,229.896,347.229,234.667,341.333,234.667z M416,352v21.333c0,5.896-4.771,10.667-10.667,10.667     c-5.896,0-10.667-4.771-10.667-10.667V352c0-5.885-4.792-10.667-10.667-10.667h-10.667v32c0,5.896-4.771,10.667-10.667,10.667     S352,379.229,352,373.333V288c0-5.896,4.771-10.667,10.667-10.667H384c17.646,0,32,14.354,32,32     c0,8.188-3.083,15.667-8.167,21.333C412.917,336.333,416,343.813,416,352z M416,170.667c5.896,0,10.667,4.771,10.667,10.667     c0,5.896-4.771,10.667-10.667,10.667h-21.333v21.333h32c5.896,0,10.667,4.771,10.667,10.667s-4.771,10.667-10.667,10.667H384     c-5.896,0-10.667-4.771-10.667-10.667v-85.333c0-5.896,4.771-10.667,10.667-10.667h42.667c5.896,0,10.667,4.771,10.667,10.667     c0,5.896-4.771,10.667-10.667,10.667h-32v21.333H416z" fill="#c02425"/>
		</g>
	</g>
</g>
<g>
</g>
<g>
</g>
<g>
</g>
<g>
</g>
<g>
</g>
<g>
</g>
<g>
</g>
<g>
</g>
<g>
</g>
<g>
</g>
<g>
</g>
<g>
</g>
<g>
</g>
<g>
</g>
<g>
</g>
</svg>
